# File created by Blade
# Date/Time:  Mon Sep 22 15:39:46 2014
# Frame Rate: 120.000 fps
#------------------------------------------------------
:FULLY-SPECIFIED
:DEGREES
3623
root 0.610604 36.966290 3.314261 2.669268 -17.311960 -0.082358
RightUpLeg 6.053262 4.191944 -0.207744
RightLeg -6.273466 -0.000000 0.000000
RightFoot -11.106455 -10.730933 14.713005
RightToeBase 14.376126 -0.000000 -0.000000
LeftUpLeg 8.805775 12.790040 5.067264
LeftLeg -3.562976 -0.000000 0.000000
LeftFoot -11.912985 16.450401 -20.958072
LeftToeBase 6.726678 -0.000000 -0.000000
Spine 3.368089 -26.150488 -7.211622
RightShoulder -6.298526 -5.498638 -25.453181
RightArm -205.725624 101.398119 -165.133372
RightForeArm 81.749503 0.000000 109.675224
RightHand 17.420005 0.000000 -24.510047
RightHandThumb1 -24.326973 -0.000000 -32.862282
LeftShoulder -19.258116 40.735211 -8.135234
LeftArm 29.267568 7.875285 -63.321682
LeftForeArm 19.388558 -0.000000 40.166965
LeftHand -15.448273 -0.000000 -11.820072
LeftHandThumb1 -26.253704 0.000000 33.147579
Head -1.004526 -42.924704 8.347813
3624
root 0.605694 36.966386 3.309848 2.684505 -17.359990 -0.091939
RightUpLeg 6.051022 4.271484 -0.198956
RightLeg -6.312066 -0.000000 0.000000
RightFoot -11.093539 -10.722711 14.760646
RightToeBase 14.455509 -0.000000 -0.000000
LeftUpLeg 8.799012 12.811326 5.080440
LeftLeg -3.562566 -0.000000 0.000000
LeftFoot -11.927549 16.455504 -20.992369
LeftToeBase 6.729161 -0.000000 -0.000000
Spine 3.351724 -26.201874 -7.232325
RightShoulder -6.338367 -5.491877 -25.447081
RightArm -205.955986 101.553184 -165.323042
RightForeArm 81.873720 -0.000000 109.651274
RightHand 17.551761 -0.000000 -24.388710
RightHandThumb1 -24.326973 -0.000000 -32.862282
LeftShoulder -19.237277 40.718519 -8.123976
LeftArm 29.239631 7.833586 -63.332696
LeftForeArm 19.395299 0.000000 40.062882
LeftHand -15.414766 0.000000 -11.806172
LeftHandThumb1 -26.253704 0.000000 33.147579
Head -0.998809 -42.902110 8.337490
3625
root 0.603712 36.966282 3.305668 2.697774 -17.403569 -0.090725
RightUpLeg 6.027910 4.299154 -0.203698
RightLeg -6.316492 -0.000000 0.000000
RightFoot -11.083683 -10.684481 14.778010
RightToeBase 14.452068 -0.000000 -0.000000
LeftUpLeg 8.793345 12.847571 5.080134
LeftLeg -3.571948 -0.000000 0.000000
LeftFoot -11.921188 16.466690 -20.985451
LeftToeBase 6.741052 -0.000000 -0.000000
Spine 3.338399 -26.267821 -7.256924
RightShoulder -6.370844 -5.559166 -25.446314
RightArm -205.915380 101.585669 -165.252143
RightForeArm 81.725191 0.000000 109.654021
RightHand 17.536031 -0.000000 -24.712213
RightHandThumb1 -24.326973 -0.000000 -32.862282
LeftShoulder -19.243375 40.727985 -8.136079
LeftArm 29.275040 7.824912 -63.311317
LeftForeArm 19.284917 -0.000000 39.910045
LeftHand -15.398079 -0.000000 -11.573356
LeftHandThumb1 -26.253704 0.000000 33.147579
Head -1.001485 -42.866555 8.329935
3626
root 0.601368 36.966493 3.301845 2.710359 -17.433722 -0.090609
RightUpLeg 6.002684 4.327087 -0.203945
RightLeg -6.306782 -0.000000 0.000000
RightFoot -11.079536 -10.685171 14.757430
RightToeBase 14.403012 -0.000000 -0.000000
LeftUpLeg 8.778000 12.889577 5.082117
LeftLeg -3.563342 -0.000000 0.000000
LeftFoot -11.924044 16.455538 -20.999567
LeftToeBase 6.767182 -0.000000 -0.000000
Spine 3.334720 -26.340504 -7.288162
RightShoulder -6.420405 -5.606164 -25.415962
RightArm -205.855302 101.625109 -165.179010
RightForeArm 81.651342 0.000000 109.643578
RightHand 17.497969 -0.000000 -24.584081
RightHandThumb1 -24.326973 -0.000000 -32.862282
LeftShoulder -19.206115 40.673703 -8.093545
LeftArm 29.215569 7.788624 -63.362558
LeftForeArm 19.359674 -0.000000 39.789648
LeftHand -15.409121 -0.000000 -11.475775
LeftHandThumb1 -26.253704 0.000000 33.147579
Head -1.036736 -42.835799 8.364819
3627
root 0.599570 36.966212 3.297526 2.715134 -17.452388 -0.090706
RightUpLeg 5.989550 4.359782 -0.203344
RightLeg -6.306654 -0.000000 0.000000
RightFoot -11.073772 -10.664236 14.786622
RightToeBase 14.427841 -0.000000 -0.000000
LeftUpLeg 8.768654 12.906766 5.082227
LeftLeg -3.560193 -0.000000 0.000000
LeftFoot -11.922772 16.470461 -20.985714
LeftToeBase 6.741544 -0.000000 -0.000000
Spine 3.343449 -26.428037 -7.315052
RightShoulder -6.465778 -5.705725 -25.388011
RightArm -205.794915 101.599010 -165.112129
RightForeArm 81.586240 -0.000000 109.633523
RightHand 17.487286 -0.000000 -24.819249
RightHandThumb1 -24.326973 -0.000000 -32.862282
LeftShoulder -19.213792 40.707457 -8.116814
LeftArm 29.252323 7.723824 -63.367587
LeftForeArm 19.422097 -0.000000 39.698828
LeftHand -15.527652 -0.000000 -11.365698
LeftHandThumb1 -26.253704 0.000000 33.147579
Head -1.069388 -42.810804 8.370268
3628
root 0.600177 36.966818 3.288520 2.750276 -17.458763 -0.090576
RightUpLeg 5.932985 4.411962 -0.205786
RightLeg -6.293327 -0.000000 0.000000
RightFoot -11.074592 -10.696474 14.795880
RightToeBase 14.377581 -0.000000 -0.000000
LeftUpLeg 8.705541 12.907792 5.068653
LeftLeg -3.534212 -0.000000 0.000000
LeftFoot -11.938966 16.492117 -20.985008
LeftToeBase 6.760972 -0.000000 -0.000000
Spine 3.333425 -26.537549 -7.335191
RightShoulder -6.486818 -5.806589 -25.331218
RightArm -205.888364 101.547630 -165.220279
RightForeArm 81.571615 -0.000000 109.606625
RightHand 17.422684 -0.000000 -24.844416
RightHandThumb1 -24.326973 -0.000000 -32.862282
LeftShoulder -19.183266 40.657814 -8.088389
LeftArm 29.184953 7.672535 -63.414189
LeftForeArm 19.461259 -0.000000 39.640059
LeftHand -15.524426 -0.000000 -11.366657
LeftHandThumb1 -26.253704 0.000000 33.147579
Head -1.118576 -42.787160 8.415125
3629
root 0.599052 36.967286 3.284457 2.750128 -17.477478 -0.098609
RightUpLeg 5.918095 4.454738 -0.197027
RightLeg -6.269633 -0.000000 0.000000
RightFoot -11.084901 -10.705641 14.790700
RightToeBase 14.366659 -0.000000 -0.000000
LeftUpLeg 8.690871 12.989920 5.079837
LeftLeg -3.505624 -0.000000 0.000000
LeftFoot -11.936437 16.472245 -20.940955
LeftToeBase 6.753007 -0.000000 -0.000000
Spine 3.363151 -26.639089 -7.361863
RightShoulder -6.497643 -6.032691 -25.262726
RightArm -205.834493 101.340798 -165.183321
RightForeArm 81.594099 -0.000000 109.592738
RightHand 17.473631 0.000000 -24.552603
RightHandThumb1 -24.326973 -0.000000 -32.862282
LeftShoulder -19.191084 40.640712 -8.095062
LeftArm 29.173479 7.625284 -63.438451
LeftForeArm 19.420581 -0.000000 39.562951
LeftHand -15.554531 0.000000 -11.334248
LeftHandThumb1 -26.253704 0.000000 33.147579
Head -1.164445 -42.760596 8.445829
3630
root 0.598443 36.967455 3.280362 2.743549 -17.500358 -0.105983
RightUpLeg 5.921422 4.555509 -0.185136
RightLeg -6.271253 -0.000000 0.000000
RightFoot -11.082057 -10.777334 14.790123
RightToeBase 14.377793 -0.000000 -0.000000
LeftUpLeg 8.704520 12.972489 5.082933
LeftLeg -3.520127 -0.000000 0.000000
LeftFoot -11.944355 16.519784 -20.940958
LeftToeBase 6.763979 -0.000000 -0.000000
Spine 3.403271 -26.745674 -7.386759
RightShoulder -6.522085 -6.059133 -25.246269
RightArm -205.903584 101.345350 -165.232081
RightForeArm 81.652789 -0.000000 109.587408
RightHand 17.560555 -0.000000 -24.670011
RightHandThumb1 -24.326973 -0.000000 -32.862282
LeftShoulder -19.223482 40.642356 -8.109216
LeftArm 29.189931 7.564433 -63.474978
LeftForeArm 19.467275 -0.000000 39.482296
LeftHand -15.506572 -0.000000 -11.585269
LeftHandThumb1 -26.253704 0.000000 33.147579
Head -1.176294 -42.739179 8.444109
3631
root 0.599371 36.967932 3.274351 2.728077 -17.531198 -0.111763
RightUpLeg 5.919728 4.647898 -0.173438
RightLeg -6.262004 -0.000000 0.000000
RightFoot -11.080018 -10.847297 14.770671
RightToeBase 14.360159 -0.000000 -0.000000
LeftUpLeg 8.713757 12.981605 5.087387
LeftLeg -3.513791 -0.000000 0.000000
LeftFoot -11.950619 16.552414 -20.923473
LeftToeBase 6.768436 -0.000000 -0.000000
Spine 3.463911 -26.834384 -7.424165
RightShoulder -6.560832 -6.102913 -25.216803
RightArm -205.903910 101.296185 -165.238960
RightForeArm 81.604699 -0.000000 109.593511
RightHand 17.376551 -0.000000 -24.744317
RightHandThumb1 -24.326973 -0.000000 -32.862282
LeftShoulder -19.222845 40.669053 -8.091909
LeftArm 29.229488 7.494660 -63.529511
LeftForeArm 19.459813 0.000000 39.390413
LeftHand -15.568807 0.000000 -11.499289
LeftHandThumb1 -26.253704 0.000000 33.147579
Head -1.222002 -42.704028 8.478013
3632
root 0.598968 36.968182 3.269182 2.717875 -17.569387 -0.135954
RightUpLeg 5.913244 4.727859 -0.145437
RightLeg -6.236482 -0.000000 0.000000
RightFoot -11.094464 -10.870832 14.795282
RightToeBase 14.377525 -0.000000 -0.000000
LeftUpLeg 8.730835 13.011984 5.113074
LeftLeg -3.511260 -0.000000 0.000000
LeftFoot -11.966014 16.564733 -20.923096
LeftToeBase 6.761884 -0.000000 -0.000000
Spine 3.512603 -26.936286 -7.439932
RightShoulder -6.565255 -6.136616 -25.216964
RightArm -205.917827 101.318314 -165.199725
RightForeArm 81.449265 -0.000000 109.566759
RightHand 17.651465 0.000000 -24.713470
RightHandThumb1 -24.326973 -0.000000 -32.862282
LeftShoulder -19.215780 40.674511 -8.078393
LeftArm 29.193053 7.435491 -63.593887
LeftForeArm 19.423751 -0.000000 39.368506
LeftHand -15.533765 0.000000 -11.497297
LeftHandThumb1 -26.253704 0.000000 33.147579
Head -1.219404 -42.651644 8.478902
